<svg xmlns="http://www.w3.org/2000/svg" width="862" height="903"><rect width="100%" height="100%" fill="none"/><g class="currentLayer"><path style="fill:#5149e5;stroke:none" d="M141 290h171v-46c0-7.169-.198-16.277 5.34-21.721 5.289-5.199 16.751-4.013 23.66-4.318 9.052-.401 18.633-3.024 27-6.414 41.332-16.743 63.962-67.276 49.135-109.547C392.073 30.55 293.937 39.956 239 67.248c-11.733 5.828-22.826 12.738-33 21.013-39.676 32.269-60.066 79.672-64.83 129.739-2.243 23.57-.17 48.316-.17 72z"/><path style="fill:#a8a4f2;stroke:none" d="M327.474 47v1h4l-4-1m5 0v1h9l-9-1m-29 1v1h5l-5-1m42 0v1h4l-4-1m-49 1v1h3l-3-1m56.667.333.666.334-.666-.334m-63 1 .666.334-.666-.334m2.333-.333 1 1-1-1m65.667.333.666.334-.666-.334m-73 1 .666.334-.666-.334m77 0 .666.334-.666-.334m-82 1 .666.334-.666-.334m85 0 .666.334-.666-.334m-89 1 .666.334-.666-.334m92 0 .666.334-.666-.334m-96 1 .666.334-.666-.334M370.474 54l1 1-1-1m-102 1 1 1-1-1m105 0 1 1-1-1m-108 1 1 1-1-1m110 0 1 1-1-1M262.14 57.333l.666.334-.666-.334M377.474 57l1 1-1-1m-118 1 1 1-1-1m120 0 1 1-1-1m-123 1 1 1-1-1m125 0 1 1-1-1m-128 1 1 1-1-1m129 0 1 1-1-1m-132 1 1 1-1-1m134 0 1 1-1-1m-136 1 1 1-1-1m138 0 1 1-1-1m-140 1 1 1-1-1m141 0 1 1-1-1m-144 1 1 1-1-1m-2 1 1 1-1-1m149 0 1 1-1-1m-151 1 1 1-1-1m152 0 1 1-1-1m-154 1 1 1-1-1m-2 1 1 1-1-1m-2 1 1 1-1-1m-2 1 1 1-1-1m-3 2 1 1-1-1m170 0 1 1-1-1m-374 1-1 3 1-3m202 0 1 1-1-1m173 0 1 1-1-1m345 0-1 3 1-3m-520 1 1 1-1-1m-3 2 1 1-1-1m-2 1 1 1-1-1m183 0 1 1-1-1m-184 1 1 1-1-1m185 0 1 1-1-1m1 1 1 1-1-1m-189 1 1 1-1-1m-3 2 1 1-1-1m194 0 1 1-1-1m-195 1 1 1-1-1m-3 2 1 1-1-1m200 0 1 1-1-1m-201 1 1 1-1-1m202 1 1 1-1-1m-205 1 1 1-1-1m-1 1 1 1-1-1m-1 1 1 1-1-1m-1 1 1 1-1-1m211 1 1 1-1-1m1.333 2.667.334.666-.334-.666M196.474 95l1 1-1-1m-1 1 1 1-1-1m-1 1 1 1-1-1m220 0 1 1-1-1m-221 1 1 1-1-1m-1 1 1 1-1-1m223.333.667.334.666-.334-.666M191.474 100l1 1-1-1m-1 1 1 1-1-1m-1 1 1 1-1-1m227 0 1 1-1-1m-228 1 1 1-1-1m229 3 1 1-1-1m-234 3 1 1-1-1m235.333.667.334.666-.334-.666M182.474 110l1 1-1-1m-1 1 1 1-1-1m238 3v3h1l-1-3m286 2-2-2m-525 1 1 1-1-1m-1 1 1 1-1-1m-2 3 1 1-1-1m-1 1 1 1-1-1m-1 2 1 1-1-1m247 0v16h1l-1-16m-248 1 1 1-1-1m-2 3 1 1-1-1m-2 3 1 1-1-1m-1 2 1 1-1-1m-1 1 1 1-1-1m-1 2 1 1-1-1m-1 2 1 1-1-1m-1 2 1 1-1-1m-1 1 1 1-1-1m-1 2 1 1-1-1m258 1v3h1l-1-3m-259 1 1 1-1-1m-1 2 1 1-1-1m-1 2 1 1-1-1m260.333 1.667.334.666-.334-.666M157.474 149l1 1-1-1m-.667 2.667.334.666-.334-.666m261 1 .334.666-.334-.666M155.474 154l1 1-1-1m-1 2 1 1-1-1m262.333.667.334.666-.334-.666m-263 2 .334.666-.334-.666m261.667.333 1 1-1-1m-263 2 1 1-1-1m262 1 1 1-1-1m-263 2 1 1-1-1m262 0 1 1-1-1m-262.667 2.667.334.666-.334-.666m261.667.333 1 1-1-1m-262.667 2.667.334.666-.334-.666M411.474 169l1 1-1-1m-1 2 1 1-1-1m-261.667 1.667.334.666-.334-.666m260.667.333 1 1-1-1m-1 1 1 1-1-1m-260.667 2.667.334.666-.334-.666M407.474 176l1 1-1-1m-1 2 1 1-1-1m-259.667 1.667.334.666-.334-.666M404.474 181l1 1-1-1m-1 1 1 1-1-1m-257.667 1.667.334.666-.334-.666M401.474 185l1 1-1-1m-1 1 1 1-1-1m-256 1v3h1l-1-3m-1 5v3h1l-1-3m252 0 1 1-1-1m-1 1 1 1-1-1m-252 4v3h1l-1-3m245 2 1 1-1-1m-4 3 1 1-1-1m-1 1 1 1-1-1m-241 1v3h1l-1-3m239 0 1 1-1-1m-3 2 1 1-1-1m-2 1 1 1-1-1m-2 1 1 1-1-1m-2 1 1 1-1-1m-2 1 1 1-1-1m-2 1 1 1-1-1m-227 1v4h1l-1-4m224 0 1 1-1-1m-2.333 1.333.666.334-.666-.334m-3 1 .666.334-.666-.334m-4 1 .666.334-.666-.334m-4 1 .666.334-.666-.334m-6.667.667v1h3l-3-1m-14 1v1h10l-10-1m-10 1 1 1-1-1m-3 1 1 1-1-1m-1 1 1 1-1-1m-1 1 1 1-1-1m-176 2v66h1v-45l-1-21m174.333 1.667.334.666-.334-.666m-1 3 .334.666-.334-.666M311.474 233v4h1l-1-4m0 56 1 1-1-1z"/><path style="fill:#6fd5b3;stroke:none" d="M111 290v1h4l-4-1z"/><path style="fill:#11b981;stroke:none" d="M115 290.425c-23.655 3.22-44.225 12.717-59.54 31.576-32.084 39.511-21.258 101.3 22.54 127.395C103.675 464.693 136.188 462 165 462h115c22.036 0 46.33 1.811 68-2.261 75.051-14.101 91.682-118.727 27-157.286C348.177 286.463 316.913 290 287 290H173c-18.911 0-39.263-2.125-58 .425z"/><path style="fill:#6fd5b3;stroke:none" d="M339 290v1h3l-3-1m-234 1v1h3l-3-1m240 0v1h3l-3-1m-243.333 1.333.666.334-.666-.334m249 0 .666.334-.666-.334m-253 1 .666.334-.666-.334m257 0 .666.334-.666-.334m-260 1 .666.334-.666-.334m263 0 .666.334-.666-.334m-266 1 .666.334-.666-.334M360 295l1 1-1-1m-271 1 1 1-1-1m274 0 1 1-1-1m-276 1 1 1-1-1m278 0 1 1-1-1m-281 1 1 1-1-1m283 0 1 1-1-1m-285 1 1 1-1-1m287 0 1 1-1-1m2 1 1 1-1-1m-292 1 1 1-1-1m294 0 1 1-1-1m-296 1 1 1-1-1m299 1 1 1-1-1m-302 1 1 1-1-1m304 0 1 1-1-1m1 1 1 1-1-1m-308 1 1 1-1-1m-1 1 1 1-1-1m312 0 1 1-1-1m1 1 1 1-1-1m-316 1 1 1-1-1m-1 1 1 1-1-1m-1 1 1 1-1-1m322 0 1 1-1-1m-323 1 1 1-1-1m324 0 1 1-1-1m-325 1 1 1-1-1m326 0 1 1-1-1m-327 1 1 1-1-1m328 0 1 1-1-1m1 1 1 1-1-1m-331 1 1 1-1-1m332 0 1 1-1-1m-333 1 1 1-1-1m334 0 1 1-1-1m-335 1 1 1-1-1m336 0 1 1-1-1m-337 1 1 1-1-1m-1 1 1 1-1-1m-1 1 1 1-1-1m-1 2 1 1-1-1m344 0 1 1-1-1m-345 1 1 1-1-1m347 2 1 1-1-1m-349 1 1 1-1-1m350 0 1 1-1-1m-351 1 1 1-1-1m-1 2 1 1-1-1m354 0 1 1-1-1m-355 1 1 1-1-1m356 1 1 1-1-1m-357 1 1 1-1-1m358 1 1 1-1-1m-359 1 1 1-1-1m-1 2 1 1-1-1m362 1 1 1-1-1m-363 1 1 1-1-1m364 1 1 1-1-1m-365 1 1 1-1-1m366 1 1 1-1-1m-367 1 1 1-1-1m368 1 1 1-1-1m-369 2 1 1-1-1m370 1 1 1-1-1m-370.667 1.667.334.666-.334-.666M412 350l1 1-1-1m-372.667 1.667.334.666-.334-.666m374 2 .334.666-.334-.666M38 355v3h1l-1-3m376 3 1 1-1-1m-377 2v3h1l-1-3m378 3v3h1l-1-3m-379 4v17h1l-1-17m380 7v4h1l-1-4m-1 11v4h1l-1-4m-378 3v3h1l-1-3m377.333 4.667.334.666-.334-.666M38 393v3h1l-1-3zM413 396v3h1l-1-3m-373.667 2.667.334.666-.334-.666m373 2 .334.666-.334-.666m-372 1 .334.666-.334-.666m371 2 .334.666-.334-.666m-370 1 .334.666-.334-.666m369 2 .334.666-.334-.666M42 407l1 1-1-1m1.333 2.667.334.666-.334-.666M409 409l1 1-1-1m-1 2 1 1-1-1m-364 1 1 1-1-1m363 1 1 1-1-1m-362 1 1 1-1-1m361 1 1 1-1-1m-360 1 1 1-1-1m359 1 1 1-1-1m-357 2 1 1-1-1m355 1 1 1-1-1m-354 1 1 1-1-1m353 1 1 1-1-1m-352 1 1 1-1-1m1 1 1 1-1-1m1 1 1 1-1-1m348 0 1 1-1-1m-1 1 1 1-1-1m-346 1 1 1-1-1m1 1 1 1-1-1m343 1 1 1-1-1m-1 1 1 1-1-1m-1 1 1 1-1-1m-338 1 1 1-1-1z"/><path style="fill:#a8a4f2;stroke:none" d="M25 433v3h1l-1-3z"/><path style="fill:#6fd5b3;stroke:none" d="m58 433 1 1-1-1zM59 434l1 1-1-1m1 1 1 1-1-1m1 1 1 1-1-1m1 1 1 1-1-1m1 1 1 1-1-1m1 1 1 1-1-1m1 1 1 1-1-1m320 1 1 1-1-1m-1 1 1 1-1-1m-315 1 1 1-1-1m314 0 1 1-1-1m-313 1 1 1-1-1m310 1 1 1-1-1m-307 1 1 1-1-1m304 1 1 1-1-1m-301 1 1 1-1-1m300 0 1 1-1-1m-298 1 1 1-1-1m296 0 1 1-1-1m-295 1 1 1-1-1m293 0 1 1-1-1m-291 1 1 1-1-1m2 1 1 1-1-1m286 0 1 1-1-1m-284 1 1 1-1-1m282 0 1 1-1-1m-279.333 1.333.666.334-.666-.334M364 454l1 1-1-1m-274 1 1 1-1-1m272 0 1 1-1-1m-269.333 1.333.666.334-.666-.334M359 456l1 1-1-1m-263.333 1.333.666.334-.666-.334m261 0 .666.334-.666-.334m-258 1 .666.334-.666-.334m255 0 .666.334-.666-.334M102 459v1h3l-3-1m247.667.333.666.334-.666-.334M106 460v1h4l-4-1m237 0v1h3l-3-1m-230 1v1h27l-27-1m200 0v1h26l-26-1z"/><path style="fill:#a8a4f2;stroke:none" d="M140 462v206h1V482l-1-20z"/><path style="fill:#5149e5;stroke:none" d="M141 462c0 81.669 2.467 163.74-4 245-24.51 1.052-48.42 12.285-63.402 32C45.397 776.109 53.715 839.471 94 864.771c19.805 12.438 41.342 13.907 64 12.318 50.561-3.543 96.497-31.554 122.396-75.089C311.027 750.511 312 690.042 312 632V462H141z"/><path style="fill:#6fd5b3;stroke:none" d="M460 470v1h15l-15-1m-8 1v1h3l-3-1z"/><path style="fill:#11b981;stroke:none" d="M455 471.439c-49.068 7.664-84.106 55.682-71.522 104.561 5.393 20.944 19.64 37.118 34.522 52l35 35c2.968 2.968 9.15 11.863 14 10.654 8.71-2.171 19.707-18.361 26-24.654 22.181-22.181 44.818-43.818 67-66l19-19c2.222-2.227 6.793-5.497 6.793-9s-4.571-6.773-6.793-9l-21-21c-28.901-28.901-57.991-60.59-103-53.561z"/><path style="fill:#6fd5b3;stroke:none" d="M479 471v1h4l-4-1z"/><path style="fill:#a8a4f2;stroke:none" d="M697 471v1h6l-6-1z"/><path style="fill:#5149e5;stroke:none" d="M702.83 471.505C658.922 476.519 633.714 508.286 604 538c-48.018 48.018-96.298 95.72-144.004 144-22.636 22.909-53.209 45.431-68.687 74C358.7 816.185 415.064 885.392 479 880.911c38.211-2.679 65.145-40.056 90-64.911 48.681-48.681 97.628-97.042 146.004-146 23.426-23.709 54.648-46.771 69.726-77 26.687-53.504-19.601-128.611-81.9-121.495z"/><path style="fill:#a8a4f2;stroke:none" d="m705 471 1 1-1-1m5 0v1h4l-4-1z"/><path style="fill:#6fd5b3;stroke:none" d="m448.667 472.333.666.334-.666-.334m37 0 .666.334-.666-.334z"/><path style="fill:#a8a4f2;stroke:none" d="m691 472 1 1-1-1m2 0 1 1-1-1m25 0v1h3l-3-1z"/><path style="fill:#6fd5b3;stroke:none" d="m444.667 473.333.666.334-.666-.334m45 0 .666.334-.666-.334zM440.667 474.333l.666.334-.666-.334M493 474l1 1-1-1z"/><path style="fill:#a8a4f2;stroke:none" d="m683 474 1 1-1-1m45 0 1 1-1-1z"/><path style="fill:#6fd5b3;stroke:none" d="m438 475 1 1-1-1m57.667.333.666.334-.666-.334z"/><path style="fill:#a8a4f2;stroke:none" d="m680 475 1 1-1-1m51.667.333.666.334-.666-.334z"/><path style="fill:#6fd5b3;stroke:none" d="m435 476 1 1-1-1m63 0 1 1-1-1z"/><path style="fill:#a8a4f2;stroke:none" d="m677 476 1 1-1-1m57 0 1 1-1-1z"/><path style="fill:#6fd5b3;stroke:none" d="m433 477 1 1-1-1m68 0 1 1-1-1z"/><path style="fill:#a8a4f2;stroke:none" d="m674 477 1 1-1-1m63 0 1 1-1-1z"/><path style="fill:#6fd5b3;stroke:none" d="m431 478 1 1-1-1m72 0 1 1-1-1z"/><path style="fill:#a8a4f2;stroke:none" d="m672 478 1 1-1-1m67 0 1 1-1-1z"/><path style="fill:#6fd5b3;stroke:none" d="m429 479 1 1-1-1m76 0 1 1-1-1z"/><path style="fill:#a8a4f2;stroke:none" d="m670 479 1 1-1-1m71 0 1 1-1-1z"/><path style="fill:#6fd5b3;stroke:none" d="m427 480 1 1-1-1m80 0 1 1-1-1z"/><path style="fill:#a8a4f2;stroke:none" d="m668 480 1 1-1-1m75 0 1 1-1-1z"/><path style="fill:#6fd5b3;stroke:none" d="m425 481 1 1-1-1m84 0 1 1-1-1z"/><path style="fill:#a8a4f2;stroke:none" d="m666 481 1 1-1-1m79 0 1 1-1-1z"/><path style="fill:#6fd5b3;stroke:none" d="m423 482 1 1-1-1m87 0 1 1-1-1z"/><path style="fill:#a8a4f2;stroke:none" d="m664 482 1 1-1-1m83 0 1 1-1-1z"/><path style="fill:#6fd5b3;stroke:none" d="m512 483 1 1-1-1z"/><path style="fill:#a8a4f2;stroke:none" d="m663 483 1 1-1-1m86 0 1 1-1-1z"/><path style="fill:#6fd5b3;stroke:none" d="m420 484 1 1-1-1z"/><path style="fill:#a8a4f2;stroke:none" d="m661 484 1 1-1-1z"/><path style="fill:#6fd5b3;stroke:none" d="m418 485 1 1-1-1m97 0 1 1-1-1z"/><path style="fill:#a8a4f2;stroke:none" d="m659 485 1 1-1-1m93 0 1 1-1-1z"/><path style="fill:#6fd5b3;stroke:none" d="m417 486 1 1-1-1z"/><path style="fill:#a8a4f2;stroke:none" d="m658 486 1 1-1-1z"/><path style="fill:#6fd5b3;stroke:none" d="m518 487 1 1-1-1z"/><path style="fill:#a8a4f2;stroke:none" d="m755 487 1 1-1-1z"/><path style="fill:#6fd5b3;stroke:none" d="m414 488 1 1-1-1m105 0 1 1-1-1z"/><path style="fill:#a8a4f2;stroke:none" d="m655 488 1 1-1-1m101 0 1 1-1-1z"/><path style="fill:#6fd5b3;stroke:none" d="m413 489 1 1-1-1z"/><path style="fill:#a8a4f2;stroke:none" d="m654 489 1 1-1-1z"/><path style="fill:#6fd5b3;stroke:none" d="m522 490 1 1-1-1z"/><path style="fill:#a8a4f2;stroke:none" d="m759 490 1 1-1-1z"/><path style="fill:#6fd5b3;stroke:none" d="m523 491 1 1-1-1z"/><path style="fill:#a8a4f2;stroke:none" d="m651 491 1 1-1-1m109 0 1 1-1-1m-110 1 1 1-1-1z"/><path style="fill:#6fd5b3;stroke:none" d="m408 493 1 1-1-1z"/><path style="fill:#a8a4f2;stroke:none" d="m649 493 1 1-1-1z"/><path style="fill:#6fd5b3;stroke:none" d="m407 494 1 1-1-1z"/><path style="fill:#a8a4f2;stroke:none" d="m648 494 1 1-1-1z"/><path style="fill:#6fd5b3;stroke:none" d="m406 495 1 1-1-1z"/><path style="fill:#a8a4f2;stroke:none" d="m647 495 1 1-1-1m118 0 1 1-1-1z"/><path style="fill:#6fd5b3;stroke:none" d="m405 496 1 1-1-1m124 0 1 1-1-1z"/><path style="fill:#a8a4f2;stroke:none" d="m766 496 1 1-1-1z"/><path style="fill:#6fd5b3;stroke:none" d="m404 497 1 1-1-1m126 0 1 1-1-1z"/><path style="fill:#a8a4f2;stroke:none" d="m767 497 1 1-1-1z"/><path style="fill:#6fd5b3;stroke:none" d="m403 498 1 1-1-1m128 0 1 1-1-1z"/><path style="fill:#a8a4f2;stroke:none" d="m768 498 1 1-1-1z"/><path style="fill:#6fd5b3;stroke:none" d="m402 499 1 1-1-1m130 0 1 1-1-1z"/><path style="fill:#a8a4f2;stroke:none" d="m769 499 1 1-1-1z"/><path style="fill:#6fd5b3;stroke:none" d="m401 500 1 1-1-1m132 0 1 1-1-1m1 1 1 1-1-1m1 1 1 1-1-1m-136 1 1 1-1-1m137 0 1 1-1-1m-138 1 1 1-1-1m139 0 1 1-1-1z"/><path style="fill:#a8a4f2;stroke:none" d="m773 504 1 1-1-1z"/><path style="fill:#6fd5b3;stroke:none" d="m397 505 1 1-1-1m141 0 1 1-1-1z"/><path style="fill:#a8a4f2;stroke:none" d="m774 505 1 1-1-1z"/><path style="fill:#6fd5b3;stroke:none" d="m539 506 1 1-1-1z"/><path style="fill:#a8a4f2;stroke:none" d="m775 506 1 1-1-1z"/><path style="fill:#6fd5b3;stroke:none" d="m540 507 1 1-1-1m-145 1 1 1-1-1m146 0 1 1-1-1m-147 1 1 1-1-1m148 0 1 1-1-1z"/><path style="fill:#a8a4f2;stroke:none" d="m777 509 1 1-1-1z"/><path style="fill:#6fd5b3;stroke:none" d="m543 510 1 1-1-1m-150 1 1 1-1-1m151 0 1 1-1-1m1 1 1 1-1-1z"/><path style="fill:#a8a4f2;stroke:none" d="m779 512 1 1-1-1z"/><path style="fill:#6fd5b3;stroke:none" d="m546 513 1 1-1-1m-155 1 1 1-1-1m156 0 1 1-1-1m1 1 1 1-1-1z"/><path style="fill:#a8a4f2;stroke:none" d="m626 515 1 1-1-1m155 0 1 1-1-1z"/><path style="fill:#6fd5b3;stroke:none" d="m390 516 1 1-1-1m159 0 1 1-1-1z"/><path style="fill:#a8a4f2;stroke:none" d="m625 516 1 1-1-1z"/><path style="fill:#6fd5b3;stroke:none" d="m550 517 1 1-1-1z"/><path style="fill:#a8a4f2;stroke:none" d="m782 517 1 1-1-1z"/><path style="fill:#6fd5b3;stroke:none" d="m389 518 1 1-1-1m162 0 1 1-1-1m1 1 1 1-1-1z"/><path style="fill:#a8a4f2;stroke:none" d="m783 519 1 1-1-1z"/><path style="fill:#6fd5b3;stroke:none" d="m388 520 1 1-1-1m165 0 1 1-1-1m-165.667 1.667.334.666-.334-.666M554 521l1 1-1-1z"/><path style="fill:#a8a4f2;stroke:none" d="m784 521 1 1-1-1z"/><path style="fill:#6fd5b3;stroke:none" d="m555 522 1 1-1-1m1 1 1 1-1-1z"/><path style="fill:#a8a4f2;stroke:none" d="m785 523 1 1-1-1z"/><path style="fill:#6fd5b3;stroke:none" d="m386 524 1 1-1-1m171 0 1 1-1-1m1 1 1 1-1-1z"/><path style="fill:#a8a4f2;stroke:none" d="m786 525 1 1-1-1z"/><path style="fill:#6fd5b3;stroke:none" d="m385.333 526.667.334.666-.334-.666M559 526l1 1-1-1m1 1 1 1-1-1z"/><path style="fill:#a8a4f2;stroke:none" d="m787 527 1 1-1-1z"/><path style="fill:#6fd5b3;stroke:none" d="m561 528 1 1-1-1m-176.667 1.667.334.666-.334-.666M562 529l1 1-1-1m1 1 1 1-1-1z"/><path style="fill:#a8a4f2;stroke:none" d="m788 530 1 1-1-1z"/><path style="fill:#6fd5b3;stroke:none" d="m564 531 1 1-1-1m-180.667 1.667.334.666-.334-.666M565 532l1 1-1-1m1 1 1 1-1-1z"/><path style="fill:#a8a4f2;stroke:none" d="m789 533 1 1-1-1z"/><path style="fill:#6fd5b3;stroke:none" d="m567 534 1 1-1-1m-185 1v3h1l-1-3m186 0 1 1-1-1m1 1 1 1-1-1z"/><path style="fill:#a8a4f2;stroke:none" d="m790 536 1 1-1-1z"/><path style="fill:#6fd5b3;stroke:none" d="m570 537 1 1-1-1m1 1 1 1-1-1m1 1 1 1-1-1m-191 1v3h1l-1-3m192 0 1 1-1-1z"/><path style="fill:#a8a4f2;stroke:none" d="m791.333 540.667.334.666-.334-.666z"/><path style="fill:#6fd5b3;stroke:none" d="m574 541 1 1-1-1m1 1 1 1-1-1m1 1 1 1-1-1m1 1 1 1-1-1m1 1 1 1-1-1z"/><path style="fill:#a8a4f2;stroke:none" d="m792.333 545.667.334.666-.334-.666z"/><path style="fill:#6fd5b3;stroke:none" d="m579 546 1 1-1-1m-199 1v15h1l-1-15m200 0 1 1-1-1m1 1 1 1-1-1m1 1 1 1-1-1z"/><path style="fill:#a8a4f2;stroke:none" d="m592 549 1 1-1-1z"/><path style="fill:#6fd5b3;stroke:none" d="m583 550 1 1-1-1z"/><path style="fill:#a8a4f2;stroke:none" d="m591 550 1 1-1-1z"/><path style="fill:#6fd5b3;stroke:none" d="m584 551 1 1-1-1z"/><path style="fill:#a8a4f2;stroke:none" d="m590 551 1 1-1-1z"/><path style="fill:#6fd5b3;stroke:none" d="m585 552 1 1-1-1z"/><path style="fill:#a8a4f2;stroke:none" d="m589 552 1 1-1-1z"/><path style="fill:#6fd5b3;stroke:none" d="m586 553 1 1-1-1z"/><path style="fill:#a8a4f2;stroke:none" d="m588 553 1 1-1-1m205 0v10h1l-1-10m-206 1 1 1-1-1z"/><path style="fill:#6fd5b3;stroke:none" d="M381 566v3h1l-1-3z"/><path style="fill:#a8a4f2;stroke:none" d="M792 567v4h1l-1-4z"/><path style="fill:#6fd5b3;stroke:none" d="m382.333 571.667.334.666-.334-.666z"/><path style="fill:#a8a4f2;stroke:none" d="m791.333 573.667.334.666-.334-.666z"/><path style="fill:#6fd5b3;stroke:none" d="m383.333 576.667.334.666-.334-.666z"/><path style="fill:#a8a4f2;stroke:none" d="m790.333 577.667.334.666-.334-.666z"/><path style="fill:#6fd5b3;stroke:none" d="m384 579 1 1-1-1z"/><path style="fill:#a8a4f2;stroke:none" d="m789 581 1 1-1-1z"/><path style="fill:#6fd5b3;stroke:none" d="m385 582 1 1-1-1z"/><path style="fill:#a8a4f2;stroke:none" d="m788.333 583.667.334.666-.334-.666z"/><path style="fill:#6fd5b3;stroke:none" d="m386.333 584.667.334.666-.334-.666z"/><path style="fill:#a8a4f2;stroke:none" d="m787.333 586.667.334.666-.334-.666z"/><path style="fill:#6fd5b3;stroke:none" d="m387 587 1 1-1-1m1 2 1 1-1-1z"/><path style="fill:#a8a4f2;stroke:none" d="m786 589 1 1-1-1z"/><path style="fill:#6fd5b3;stroke:none" d="m389 591 1 1-1-1z"/><path style="fill:#a8a4f2;stroke:none" d="m785 591 1 1-1-1z"/><path style="fill:#6fd5b3;stroke:none" d="m390 593 1 1-1-1z"/><path style="fill:#a8a4f2;stroke:none" d="m784.333 593.667.334.666-.334-.666z"/><path style="fill:#6fd5b3;stroke:none" d="m391 595 1 1-1-1z"/><path style="fill:#a8a4f2;stroke:none" d="m783 595 1 1-1-1z"/><path style="fill:#6fd5b3;stroke:none" d="m392 597 1 1-1-1z"/><path style="fill:#a8a4f2;stroke:none" d="m782 597 1 1-1-1z"/><path style="fill:#6fd5b3;stroke:none" d="m393 598 1 1-1-1z"/><path style="fill:#a8a4f2;stroke:none" d="m781 598 1 1-1-1z"/><path style="fill:#6fd5b3;stroke:none" d="m394 600 1 1-1-1z"/><path style="fill:#a8a4f2;stroke:none" d="m780 600 1 1-1-1z"/><path style="fill:#6fd5b3;stroke:none" d="m395 602 1 1-1-1z"/><path style="fill:#a8a4f2;stroke:none" d="m779 602 1 1-1-1z"/><path style="fill:#6fd5b3;stroke:none" d="m396 603 1 1-1-1z"/><path style="fill:#a8a4f2;stroke:none" d="m778 603 1 1-1-1z"/><path style="fill:#6fd5b3;stroke:none" d="m398 606 1 1-1-1z"/><path style="fill:#a8a4f2;stroke:none" d="m776 606 1 1-1-1z"/><path style="fill:#6fd5b3;stroke:none" d="m399 607 1 1-1-1m2 3 1 1-1-1z"/><path style="fill:#a8a4f2;stroke:none" d="m773 610 1 1-1-1z"/><path style="fill:#6fd5b3;stroke:none" d="m402 611 1 1-1-1m1 1 1 1-1-1z"/><path style="fill:#a8a4f2;stroke:none" d="m768 616 1 1-1-1z"/><path style="fill:#6fd5b3;stroke:none" d="m407 617 1 1-1-1z"/><path style="fill:#a8a4f2;stroke:none" d="m767 617 1 1-1-1z"/><path style="fill:#6fd5b3;stroke:none" d="m408 618 1 1-1-1z"/><path style="fill:#a8a4f2;stroke:none" d="m766 618 1 1-1-1z"/><path style="fill:#6fd5b3;stroke:none" d="m409 619 1 1-1-1z"/><path style="fill:#a8a4f2;stroke:none" d="m765 619 1 1-1-1z"/><path style="fill:#6fd5b3;stroke:none" d="m410 620 1 1-1-1z"/><path style="fill:#a8a4f2;stroke:none" d="m764 620 1 1-1-1z"/><path style="fill:#6fd5b3;stroke:none" d="m411 621 1 1-1-1z"/><path style="fill:#a8a4f2;stroke:none" d="m763 621 1 1-1-1z"/><path style="fill:#6fd5b3;stroke:none" d="m412 622 1 1-1-1z"/><path style="fill:#a8a4f2;stroke:none" d="m762 622 1 1-1-1z"/><path style="fill:#6fd5b3;stroke:none" d="m413 623 1 1-1-1z"/><path style="fill:#a8a4f2;stroke:none" d="m761 623 1 1-1-1z"/><path style="fill:#6fd5b3;stroke:none" d="m414 624 1 1-1-1z"/><path style="fill:#a8a4f2;stroke:none" d="m760 624 1 1-1-1z"/><path style="fill:#6fd5b3;stroke:none" d="m415 625 1 1-1-1z"/><path style="fill:#a8a4f2;stroke:none" d="m759 625 1 1-1-1z"/><path style="fill:#6fd5b3;stroke:none" d="m416 626 1 1-1-1z"/><path style="fill:#a8a4f2;stroke:none" d="m758 626 1 1-1-1z"/><path style="fill:#6fd5b3;stroke:none" d="m417 627 1 1-1-1z"/><path style="fill:#a8a4f2;stroke:none" d="m757 627 1 1-1-1z"/><path style="fill:#6fd5b3;stroke:none" d="m418 628 1 1-1-1z"/><path style="fill:#a8a4f2;stroke:none" d="m756 628 1 1-1-1z"/><path style="fill:#6fd5b3;stroke:none" d="m419 629 1 1-1-1z"/><path style="fill:#a8a4f2;stroke:none" d="m755 629 1 1-1-1z"/><path style="fill:#6fd5b3;stroke:none" d="m420 630 1 1-1-1z"/><path style="fill:#a8a4f2;stroke:none" d="m754 630 1 1-1-1z"/><path style="fill:#6fd5b3;stroke:none" d="m421 631 1 1-1-1z"/><path style="fill:#a8a4f2;stroke:none" d="m753 631 1 1-1-1z"/><path style="fill:#6fd5b3;stroke:none" d="m422 632 1 1-1-1z"/><path style="fill:#a8a4f2;stroke:none" d="m752 632 1 1-1-1z"/><path style="fill:#6fd5b3;stroke:none" d="m423 633 1 1-1-1z"/><path style="fill:#a8a4f2;stroke:none" d="m751 633 1 1-1-1z"/><path style="fill:#6fd5b3;stroke:none" d="m424 634 1 1-1-1z"/><path style="fill:#a8a4f2;stroke:none" d="m750 634 1 1-1-1z"/><path style="fill:#6fd5b3;stroke:none" d="m425 635 1 1-1-1z"/><path style="fill:#a8a4f2;stroke:none" d="m749 635 1 1-1-1z"/><path style="fill:#6fd5b3;stroke:none" d="m426 636 1 1-1-1z"/><path style="fill:#a8a4f2;stroke:none" d="m748 636 1 1-1-1z"/><path style="fill:#6fd5b3;stroke:none" d="m427 637 1 1-1-1z"/><path style="fill:#a8a4f2;stroke:none" d="m747 637 1 1-1-1z"/><path style="fill:#6fd5b3;stroke:none" d="m428 638 1 1-1-1z"/><path style="fill:#a8a4f2;stroke:none" d="m746 638 1 1-1-1z"/><path style="fill:#6fd5b3;stroke:none" d="m429 639 1 1-1-1z"/><path style="fill:#a8a4f2;stroke:none" d="m745 639 1 1-1-1z"/><path style="fill:#6fd5b3;stroke:none" d="m430 640 1 1-1-1z"/><path style="fill:#a8a4f2;stroke:none" d="m744 640 1 1-1-1z"/><path style="fill:#6fd5b3;stroke:none" d="m431 641 1 1-1-1z"/><path style="fill:#a8a4f2;stroke:none" d="m743 641 1 1-1-1z"/><path style="fill:#6fd5b3;stroke:none" d="m432 642 1 1-1-1z"/><path style="fill:#a8a4f2;stroke:none" d="m742 642 1 1-1-1z"/><path style="fill:#6fd5b3;stroke:none" d="m433 643 1 1-1-1z"/><path style="fill:#a8a4f2;stroke:none" d="m741 643 1 1-1-1z"/><path style="fill:#6fd5b3;stroke:none" d="m434 644 1 1-1-1z"/><path style="fill:#a8a4f2;stroke:none" d="m740 644 1 1-1-1z"/><path style="fill:#6fd5b3;stroke:none" d="m435 645 1 1-1-1z"/><path style="fill:#a8a4f2;stroke:none" d="m739 645 1 1-1-1z"/><path style="fill:#6fd5b3;stroke:none" d="m436 646 1 1-1-1z"/><path style="fill:#a8a4f2;stroke:none" d="m738 646 1 1-1-1z"/><path style="fill:#6fd5b3;stroke:none" d="m437 647 1 1-1-1z"/><path style="fill:#a8a4f2;stroke:none" d="m737 647 1 1-1-1z"/><path style="fill:#6fd5b3;stroke:none" d="m438 648 1 1-1-1z"/><path style="fill:#a8a4f2;stroke:none" d="m736 648 1 1-1-1z"/><path style="fill:#6fd5b3;stroke:none" d="m439 649 1 1-1-1z"/><path style="fill:#a8a4f2;stroke:none" d="m735 649 1 1-1-1z"/><path style="fill:#6fd5b3;stroke:none" d="m440 650 1 1-1-1z"/><path style="fill:#a8a4f2;stroke:none" d="m734 650 1 1-1-1z"/><path style="fill:#6fd5b3;stroke:none" d="m441 651 1 1-1-1z"/><path style="fill:#a8a4f2;stroke:none" d="m733 651 1 1-1-1z"/><path style="fill:#6fd5b3;stroke:none" d="m442 652 1 1-1-1z"/><path style="fill:#a8a4f2;stroke:none" d="m732 652 1 1-1-1z"/><path style="fill:#6fd5b3;stroke:none" d="m443 653 1 1-1-1z"/><path style="fill:#a8a4f2;stroke:none" d="m731 653 1 1-1-1z"/><path style="fill:#6fd5b3;stroke:none" d="m444 654 1 1-1-1z"/><path style="fill:#a8a4f2;stroke:none" d="m730 654 1 1-1-1z"/><path style="fill:#6fd5b3;stroke:none" d="m445 655 1 1-1-1z"/><path style="fill:#a8a4f2;stroke:none" d="m729 655 1 1-1-1z"/><path style="fill:#6fd5b3;stroke:none" d="m446 656 1 1-1-1z"/><path style="fill:#a8a4f2;stroke:none" d="m728 656 1 1-1-1z"/><path style="fill:#6fd5b3;stroke:none" d="m447 657 1 1-1-1z"/><path style="fill:#a8a4f2;stroke:none" d="m727 657 1 1-1-1z"/><path style="fill:#6fd5b3;stroke:none" d="m448 658 1 1-1-1z"/><path style="fill:#a8a4f2;stroke:none" d="m726 658 1 1-1-1z"/><path style="fill:#6fd5b3;stroke:none" d="m449 659 1 1-1-1z"/><path style="fill:#a8a4f2;stroke:none" d="m725 659 1 1-1-1z"/><path style="fill:#6fd5b3;stroke:none" d="m450 660 1 1-1-1z"/><path style="fill:#a8a4f2;stroke:none" d="m724 660 1 1-1-1z"/><path style="fill:#6fd5b3;stroke:none" d="m451 661 1 1-1-1z"/><path style="fill:#a8a4f2;stroke:none" d="m723 661 1 1-1-1z"/><path style="fill:#6fd5b3;stroke:none" d="m452 662 1 1-1-1z"/><path style="fill:#a8a4f2;stroke:none" d="m722 662 1 1-1-1z"/><path style="fill:#6fd5b3;stroke:none" d="m453 663 1 1-1-1z"/><path style="fill:#a8a4f2;stroke:none" d="m721 663 1 1-1-1z"/><path style="fill:#6fd5b3;stroke:none" d="m454 664 1 1-1-1z"/><path style="fill:#a8a4f2;stroke:none" d="m720 664 1 1-1-1z"/><path style="fill:#6fd5b3;stroke:none" d="m455 665 1 1-1-1z"/><path style="fill:#a8a4f2;stroke:none" d="m719 665 1 1-1-1z"/><path style="fill:#6fd5b3;stroke:none" d="m456 666 1 1-1-1z"/><path style="fill:#a8a4f2;stroke:none" d="m718 666 1 1-1-1z"/><path style="fill:#6fd5b3;stroke:none" d="m457 667 1 1-1-1z"/><path style="fill:#a8a4f2;stroke:none" d="m717 667 1 1-1-1z"/><path style="fill:#6fd5b3;stroke:none" d="m458 668 1 1-1-1z"/><path style="fill:#a8a4f2;stroke:none" d="m716 668 1 1-1-1z"/><path style="fill:#6fd5b3;stroke:none" d="m459 669 1 1-1-1z"/><path style="fill:#a8a4f2;stroke:none" d="m715 669 1 1-1-1z"/><path style="fill:#6fd5b3;stroke:none" d="m460 670 1 1-1-1z"/><path style="fill:#a8a4f2;stroke:none" d="m714 670 1 1-1-1z"/><path style="fill:#6fd5b3;stroke:none" d="m461 671 1 1-1-1z"/><path style="fill:#a8a4f2;stroke:none" d="m713 671 1 1-1-1z"/><path style="fill:#6fd5b3;stroke:none" d="m462 672 1 1-1-1z"/><path style="fill:#a8a4f2;stroke:none" d="m712 672 1 1-1-1z"/><path style="fill:#6fd5b3;stroke:none" d="m463 673 1 1-1-1z"/><path style="fill:#a8a4f2;stroke:none" d="m711 673 1 1-1-1z"/><path style="fill:#6fd5b3;stroke:none" d="m464 674 1 1-1-1z"/><path style="fill:#a8a4f2;stroke:none" d="m710 674 1 1-1-1z"/><path style="fill:#6fd5b3;stroke:none" d="m465 675 1 1-1-1z"/><path style="fill:#a8a4f2;stroke:none" d="m709 675 1 1-1-1m-244 1 1 1-1-1z"/><path style="fill:#11b981;stroke:none" d="M709 676c-28.843 28.844-57.819 57.549-87 86.015-8.094 7.896-16.005 15.989-24 23.985-2.665 2.665-7.701 6.175-8.654 10-1.158 4.642 6.83 10.176 9.654 13l34 34c23.779 23.779 47.8 41.349 83 37.829 46.694-4.668 82.64-53.206 76.711-98.829-2.736-21.05-15.075-38.34-29.711-53-17.199-17.227-34.112-38.991-54-53z"/><path style="fill:#a8a4f2;stroke:none" d="m464 677 1 1-1-1m-153 1v9h1l-1-9m152 0 1 1-1-1m-1 1 1 1-1-1m-1 1 1 1-1-1m-1 1 1 1-1-1m-321 1v6h1l-1-6m320 0 1 1-1-1m-1 1 1 1-1-1m-1 1 1 1-1-1m-1 1 1 1-1-1m-1 1 1 1-1-1m-1 1 1 1-1-1m-1 1 1 1-1-1m-1 1 1 1-1-1m-1 1 1 1-1-1m-1 1 1 1-1-1m-1 1 1 1-1-1m-1 1 1 1-1-1m-310 1v4h1l-1-4m309 0 1 1-1-1m-137 1v7h1l-1-7m136 0 1 1-1-1m-1 1 1 1-1-1m-1 1 1 1-1-1m-1 1 1 1-1-1m-1 1 1 1-1-1m-1 1 1 1-1-1m-303.667 1.667.334.666-.334-.666M440 701l1 1-1-1m-1 1 1 1-1-1m-1 1 1 1-1-1m-1 1 1 1-1-1m-300.667 1.667.334.666-.334-.666M436 705l1 1-1-1m-127 1v5h1l-1-5m126 0 1 1-1-1m-307 1v1h4l-4-1m306 0 1 1-1-1m-310.333 1.333.666.334-.666-.334M433 708l1 1-1-1m-315 1v1h3l-3-1m314 0 1 1-1-1m-317 1 1 1-1-1m316 0 1 1-1-1m-319 1 1 1-1-1m318 0 1 1-1-1m-321 1 1 1-1-1m320 0 1 1-1-1m-323 1 1 1-1-1m322 0 1 1-1-1m-324.333 1.333.666.334-.666-.334M427 714l1 1-1-1m-325 1 1 1-1-1m206 0v4h1l-1-4m-208 1 1 1-1-1m-2 1 1 1-1-1m326 0 1 1-1-1m-1 1 1 1-1-1m-328 1 1 1-1-1m327 0 1 1-1-1m-329 1 1 1-1-1m328 0 1 1-1-1m-1 1 1 1-1-1m-330 1 1 1-1-1m217 0v3h1l-1-3m112 0 1 1-1-1m-330 1 1 1-1-1m329 0 1 1-1-1m-1 1 1 1-1-1m-331 1 1 1-1-1m330 0 1 1-1-1m-331 1 1 1-1-1m330 0 1 1-1-1m-331 1 1 1-1-1m330 0 1 1-1-1m-331 1 1 1-1-1m223 0v3h1l-1-3m107 0 1 1-1-1m-331 1 1 1-1-1m330 0 1 1-1-1m-331 1 1 1-1-1m330 0 1 1-1-1m-331 1 1 1-1-1m330 0 1 1-1-1m-331 1 1 1-1-1m330 0 1 1-1-1m-331 1 1 1-1-1m227 0v3h1l-1-3m103 0 1 1-1-1m-331 1 1 1-1-1m330 0 1 1-1-1m-331 1 1 1-1-1m330 0 1 1-1-1m-1 1 1 1-1-1m-1 1 1 1-1-1m-100 1v3h1l-1-3m99 0 1 1-1-1z"/><path style="fill:#6fd5b3;stroke:none" d="m771 738 1 1-1-1m1 1 1 1-1-1z"/><path style="fill:#a8a4f2;stroke:none" d="m72 740 1 1-1-1z"/><path style="fill:#6fd5b3;stroke:none" d="m773 740 1 1-1-1z"/><path style="fill:#a8a4f2;stroke:none" d="m71 742 1 1-1-1m329 0 1 1-1-1m-330 1 1 1-1-1m233.333.667.334.666-.334-.666M399 743l1 1-1-1z"/><path style="fill:#6fd5b3;stroke:none" d="m776 744 1 1-1-1m1 1 1 1-1-1z"/><path style="fill:#a8a4f2;stroke:none" d="m68 746 1 1-1-1m234.333 1.667.334.666-.334-.666M396 747l1 1-1-1m-329 1 1 1-1-1z"/><path style="fill:#6fd5b3;stroke:none" d="m779 748 1 1-1-1m1 1 1 1-1-1z"/><path style="fill:#a8a4f2;stroke:none" d="m66 750 1 1-1-1m235 0v3h1l-1-3m93 0 1 1-1-1z"/><path style="fill:#6fd5b3;stroke:none" d="m781 751 1 1-1-1z"/><path style="fill:#a8a4f2;stroke:none" d="m65 752 1 1-1-1m328 0 1 1-1-1m-1 1 1 1-1-1z"/><path style="fill:#6fd5b3;stroke:none" d="m782 753 1 1-1-1z"/><path style="fill:#a8a4f2;stroke:none" d="M785 753v3h1l-1-3m-721 1 1 1-1-1m236.333.667.334.666-.334-.666z"/><path style="fill:#6fd5b3;stroke:none" d="m783 754 1 1-1-1z"/><path style="fill:#a8a4f2;stroke:none" d="m391 755 1 1-1-1m-327.667 1.667.334.666-.334-.666z"/><path style="fill:#6fd5b3;stroke:none" d="m784 756 1 1-1-1z"/><path style="fill:#a8a4f2;stroke:none" d="m299.333 757.667.334.666-.334-.666M390 757l1 1-1-1z"/><path style="fill:#6fd5b3;stroke:none" d="m785 758 1 1-1-1z"/><path style="fill:#a8a4f2;stroke:none" d="m62.333 759.667.334.666-.334-.666M389 759l1 1-1-1m-91 2 1 1-1-1m90 0 1 1-1-1m-326.667 1.667.334.666-.334-.666M387 763l1 1-1-1m-90 1 1 1-1-1m-236.667 1.667.334.666-.334-.666m326 0 .334.666-.334-.666z"/><path style="fill:#6fd5b3;stroke:none" d="m788 765 1 1-1-1z"/><path style="fill:#a8a4f2;stroke:none" d="m296 767 1 1-1-1m-237 1v3h1l-1-3m326.333.667.334.666-.334-.666z"/><path style="fill:#6fd5b3;stroke:none" d="m789 768 1 1-1-1z"/><path style="fill:#a8a4f2;stroke:none" d="m295.333 769.667.334.666-.334-.666m89 2 .334.666-.334-.666z"/><path style="fill:#6fd5b3;stroke:none" d="m790 771 1 1-1-1z"/><path style="fill:#a8a4f2;stroke:none" d="m294 772 1 1-1-1m-236 1v3h1l-1-3m235 2 1 1-1-1m90.333.667.334.666-.334-.666z"/><path style="fill:#6fd5b3;stroke:none" d="m791 775 1 1-1-1z"/><path style="fill:#a8a4f2;stroke:none" d="m292 777 1 1-1-1m-235 2v5h1l-1-5m325 0v4h1l-1-4z"/><path style="fill:#6fd5b3;stroke:none" d="m792.333 779.667.334.666-.334-.666z"/><path style="fill:#a8a4f2;stroke:none" d="m291 780 1 1-1-1m-1 2 1 1-1-1m-1 2 1 1-1-1m-1 2 1 1-1-1z"/><path style="fill:#6fd5b3;stroke:none" d="M793 786v15h1l-1-15zM792 805v3h1l-1-3z"/><path style="fill:#a8a4f2;stroke:none" d="m277 806 1 1-1-1m301 0 1 1-1-1m-520 1v3h1l-1-3m519 0 1 1-1-1m-301 1 1 1-1-1m300 0 1 1-1-1m-301 1 1 1-1-1m108.333.667.334.666-.334-.666M575 809l1 1-1-1m-1 1 1 1-1-1z"/><path style="fill:#6fd5b3;stroke:none" d="M791 810v3h1l-1-3z"/><path style="fill:#a8a4f2;stroke:none" d="m274 811 1 1-1-1m299 0 1 1-1-1m-300 1 1 1-1-1m299 0 1 1-1-1m-512.667 1.667.334.666-.334-.666m325 0 .334.666-.334-.666M571 813l1 1-1-1m-1 1 1 1-1-1z"/><path style="fill:#6fd5b3;stroke:none" d="m790.333 814.667.334.666-.334-.666z"/><path style="fill:#a8a4f2;stroke:none" d="m271 815 1 1-1-1m298 0 1 1-1-1m-183.667 1.667.334.666-.334-.666M568 816l1 1-1-1m-508 1 1 1-1-1m507 0 1 1-1-1m-298 1 1 1-1-1m297 0 1 1-1-1z"/><path style="fill:#6fd5b3;stroke:none" d="m789 818 1 1-1-1z"/><path style="fill:#a8a4f2;stroke:none" d="m268 819 1 1-1-1m297 0 1 1-1-1m-503.667 1.667.334.666-.334-.666M386 820l1 1-1-1m178 0 1 1-1-1m-1 1 1 1-1-1z"/><path style="fill:#6fd5b3;stroke:none" d="m788 821 1 1-1-1z"/><path style="fill:#a8a4f2;stroke:none" d="m387.333 822.667.334.666-.334-.666M562 822l1 1-1-1m-500 1 1 1-1-1m203 0 1 1-1-1m296 0 1 1-1-1z"/><path style="fill:#6fd5b3;stroke:none" d="m787 823 1 1-1-1z"/><path style="fill:#a8a4f2;stroke:none" d="m264 824 1 1-1-1m124 1 1 1-1-1m-325 1 1 1-1-1z"/><path style="fill:#6fd5b3;stroke:none" d="m786 826 1 1-1-1z"/><path style="fill:#a8a4f2;stroke:none" d="m389 827 1 1-1-1m-324.667 1.667.334.666-.334-.666M261 828l1 1-1-1z"/><path style="fill:#6fd5b3;stroke:none" d="m785 828 1 1-1-1z"/><path style="fill:#a8a4f2;stroke:none" d="m260 829 1 1-1-1m130 0 1 1-1-1m-324.667 1.667.334.666-.334-.666M259 830l1 1-1-1z"/><path style="fill:#6fd5b3;stroke:none" d="m784 830 1 1-1-1z"/><path style="fill:#a8a4f2;stroke:none" d="m258 831 1 1-1-1m133 0 1 1-1-1m-134 1 1 1-1-1z"/><path style="fill:#6fd5b3;stroke:none" d="m783 832 1 1-1-1zM624 834l1 1-1-1m158 0 1 1-1-1z"/><path style="fill:#a8a4f2;stroke:none" d="m67 835 1 1-1-1m326 0 1 1-1-1m-325 2 1 1-1-1m326 0 1 1-1-1z"/><path style="fill:#6fd5b3;stroke:none" d="m780 837 1 1-1-1z"/><path style="fill:#a8a4f2;stroke:none" d="m69 838 1 1-1-1m326 0 1 1-1-1m-325 2 1 1-1-1m178 0 1 1-1-1m148 0 1 1-1-1z"/><path style="fill:#6fd5b3;stroke:none" d="m778 840 1 1-1-1z"/><path style="fill:#a8a4f2;stroke:none" d="m247 841 1 1-1-1m150 0 1 1-1-1m-326 1 1 1-1-1m1 1 1 1-1-1m172 0 1 1-1-1m154 0 1 1-1-1z"/><path style="fill:#6fd5b3;stroke:none" d="m776 843 1 1-1-1z"/><path style="fill:#a8a4f2;stroke:none" d="m73 844 1 1-1-1m170 0 1 1-1-1m156 0 1 1-1-1z"/><path style="fill:#6fd5b3;stroke:none" d="m775 844 1 1-1-1z"/><path style="fill:#a8a4f2;stroke:none" d="m400 845 1 1-1-1m-326 1 1 1-1-1m1 1 1 1-1-1m164 0 1 1-1-1z"/><path style="fill:#6fd5b3;stroke:none" d="m773 847 1 1-1-1z"/><path style="fill:#a8a4f2;stroke:none" d="m238 848 1 1-1-1m164 0 1 1-1-1z"/><path style="fill:#6fd5b3;stroke:none" d="m772 848 1 1-1-1z"/><path style="fill:#a8a4f2;stroke:none" d="m236 849 1 1-1-1m167 0 1 1-1-1z"/><path style="fill:#6fd5b3;stroke:none" d="m771 849 1 1-1-1z"/><path style="fill:#a8a4f2;stroke:none" d="m404 850 1 1-1-1m-326 1 1 1-1-1m155 0 1 1-1-1m172 0 1 1-1-1m-326 1 1 1-1-1m327 0 1 1-1-1m-326 1 1 1-1-1m150 0 1 1-1-1m177 0 1 1-1-1m-326 1 1 1-1-1m147 0 1 1-1-1m-146 1 1 1-1-1m145 0 1 1-1-1m-144 1 1 1-1-1m142 0 1 1-1-1m185 0 1 1-1-1m-326 1 1 1-1-1m139 0 1 1-1-1m188 0 1 1-1-1m-326 1 1 1-1-1m136 0 1 1-1-1m191 0 1 1-1-1m-193 1 1 1-1-1m194 0 1 1-1-1z"/><path style="fill:#6fd5b3;stroke:none" d="m650 859 1 1-1-1m111 0 1 1-1-1z"/><path style="fill:#a8a4f2;stroke:none" d="m217 860 1 1-1-1m197 0 1 1-1-1z"/><path style="fill:#6fd5b3;stroke:none" d="m651 860 1 1-1-1m109 0 1 1-1-1z"/><path style="fill:#a8a4f2;stroke:none" d="m89 861 1 1-1-1m126 0 1 1-1-1m307 0 1 1-1-1z"/><path style="fill:#6fd5b3;stroke:none" d="m652 861 1 1-1-1m107 0 1 1-1-1z"/><path style="fill:#a8a4f2;stroke:none" d="m90 862 1 1-1-1m123 0 1 1-1-1m308 0 1 1-1-1z"/><path style="fill:#6fd5b3;stroke:none" d="m653 862 1 1-1-1z"/><path style="fill:#a8a4f2;stroke:none" d="m211 863 1 1-1-1m207 0 1 1-1-1z"/><path style="fill:#6fd5b3;stroke:none" d="m756 863 1 1-1-1z"/><path style="fill:#a8a4f2;stroke:none" d="m93 864 1 1-1-1m116 0 1 1-1-1m210 0 1 1-1-1z"/><path style="fill:#6fd5b3;stroke:none" d="m656 864 1 1-1-1m99 0 1 1-1-1z"/><path style="fill:#a8a4f2;stroke:none" d="m95 865 1 1-1-1m112 0 1 1-1-1m310 0 1 1-1-1z"/><path style="fill:#6fd5b3;stroke:none" d="m657 865 1 1-1-1z"/><path style="fill:#a8a4f2;stroke:none" d="m96 866 1 1-1-1m108 0 1 1-1-1m218 0 1 1-1-1m94 0 1 1-1-1z"/><path style="fill:#6fd5b3;stroke:none" d="m752 866 1 1-1-1z"/><path style="fill:#a8a4f2;stroke:none" d="m98 867 1 1-1-1m103 0 1 1-1-1m223 0 1 1-1-1m90 0 1 1-1-1z"/><path style="fill:#6fd5b3;stroke:none" d="m660 867 1 1-1-1z"/><path style="fill:#a8a4f2;stroke:none" d="m100 868 1 1-1-1m99 0 1 1-1-1m226 0 1 1-1-1m88 0 1 1-1-1z"/><path style="fill:#6fd5b3;stroke:none" d="m749 868 1 1-1-1z"/><path style="fill:#a8a4f2;stroke:none" d="m102 869 1 1-1-1m94 0 1 1-1-1m231 0 1 1-1-1m84 0 1 1-1-1z"/><path style="fill:#6fd5b3;stroke:none" d="m663 869 1 1-1-1z"/><path style="fill:#a8a4f2;stroke:none" d="m104 870 1 1-1-1m89 0 1 1-1-1m236 0 1 1-1-1z"/><path style="fill:#6fd5b3;stroke:none" d="m665 870 1 1-1-1m81 0 1 1-1-1z"/><path style="fill:#a8a4f2;stroke:none" d="m106 871 1 1-1-1m83.667.333.666.334-.666-.334m241 0 .666.334-.666-.334M508 871l1 1-1-1z"/><path style="fill:#6fd5b3;stroke:none" d="m666 871 1 1-1-1m78 0 1 1-1-1z"/><path style="fill:#a8a4f2;stroke:none" d="m108.667 872.333.666.334-.666-.334M186 872l1 1-1-1m246 0 1 1-1-1m74 0 1 1-1-1z"/><path style="fill:#6fd5b3;stroke:none" d="m668 872 1 1-1-1m74 0 1 1-1-1z"/><path style="fill:#a8a4f2;stroke:none" d="m111.667 873.333.666.334-.666-.334m71 0 .666.334-.666-.334M434 873l1 1-1-1m70 0 1 1-1-1z"/><path style="fill:#6fd5b3;stroke:none" d="m670 873 1 1-1-1m70 0 1 1-1-1z"/><path style="fill:#a8a4f2;stroke:none" d="m114.667 874.333.666.334-.666-.334m64 0 .666.334-.666-.334m258 0 .666.334-.666-.334M502 874l1 1-1-1z"/><path style="fill:#6fd5b3;stroke:none" d="m672 874 1 1-1-1m66 0 1 1-1-1z"/><path style="fill:#a8a4f2;stroke:none" d="m118.667 875.333.666.334-.666-.334m54 0 .666.334-.666-.334M439 875l1 1-1-1m61 0 1 1-1-1z"/><path style="fill:#6fd5b3;stroke:none" d="m674.667 875.333.666.334-.666-.334m61 0 .666.334-.666-.334z"/><path style="fill:#a8a4f2;stroke:none" d="M122 876v1h3l-3-1m44 0v1h3l-3-1m275.667.333.666.334-.666-.334M497 876l1 1-1-1z"/><path style="fill:#6fd5b3;stroke:none" d="m677 876 1 1-1-1m56 0 1 1-1-1z"/><path style="fill:#a8a4f2;stroke:none" d="M128 877v1h5l-5-1m26 0v1h9l-9-1m290.667.333.666.334-.666-.334m50 0 .666.334-.666-.334z"/><path style="fill:#6fd5b3;stroke:none" d="m680 877 1 1-1-1m50 0 1 1-1-1z"/><path style="fill:#a8a4f2;stroke:none" d="m447.667 878.333.666.334-.666-.334M492 878l1 1-1-1z"/><path style="fill:#6fd5b3;stroke:none" d="m682.667 878.333.666.334-.666-.334M727 878l1 1-1-1z"/><path style="fill:#a8a4f2;stroke:none" d="m451.667 879.333.666.334-.666-.334m36 0 .666.334-.666-.334z"/><path style="fill:#6fd5b3;stroke:none" d="M686 879v1h3l-3-1m37.667.333.666.334-.666-.334z"/><path style="fill:#a8a4f2;stroke:none" d="M455 880v1h3l-3-1m27 0v1h3l-3-1z"/><path style="fill:#6fd5b3;stroke:none" d="M690 880v1h3l-3-1m28.667.333.666.334-.666-.334z"/><path style="fill:#a8a4f2;stroke:none" d="M463 881v1h15l-15-1z"/><path style="fill:#6fd5b3;stroke:none" d="M697 881v1h16l-16-1z"/></g></svg>